<?xml version="1.0" encoding="UTF-8"?>
<svg width="128" height="128" viewBox="0 0 128 128" fill="none" xmlns="http://www.w3.org/2000/svg">
  <circle cx="64" cy="64" r="60" fill="#FFD700"/>
  <path d="M64 24C42.9086 24 26 40.9086 26 62C26 83.0914 42.9086 100 64 100C85.0914 100 102 83.0914 102 62C102 40.9086 85.0914 24 64 24ZM64 92C46.268 92 32 77.732 32 60C32 42.268 46.268 28 64 28C81.732 28 96 42.268 96 60C96 77.732 81.732 92 64 92Z" fill="#000000"/>
  <path d="M64 36C48.536 36 36 48.536 36 64C36 79.464 48.536 92 64 92C79.464 92 92 79.464 92 64C92 48.536 79.464 36 64 36ZM64 84C52.954 84 44 75.046 44 64C44 52.954 52.954 44 64 44C75.046 44 84 52.954 84 64C84 75.046 75.046 84 64 84Z" fill="#000000"/>
</svg> 